<svg width="19" height="20" viewBox="0 0 19 20" fill="none" xmlns="http://www.w3.org/2000/svg">
<path fill-rule="evenodd" clip-rule="evenodd" d="M13.739 18.1006C12.1397 17.6999 8.86578 16.5703 5.89773 13.6023C2.92968 10.6342 1.8001 7.36026 1.39941 5.76103C1.16915 4.84197 1.58379 3.95511 2.28689 3.4529L4.13009 2.13633C5.20856 1.366 6.70884 1.6274 7.46323 2.71708L8.62365 4.39324C9.11623 5.10474 8.94633 6.07991 8.24214 6.5829L7.31686 7.24382C7.4569 7.77946 7.89244 8.87945 9.25649 10.2435C10.6205 11.6075 11.7205 12.0431 12.2562 12.1831L12.9171 11.2578C13.4201 10.5537 14.3953 10.3838 15.1068 10.8763L16.7829 12.0368C17.8726 12.7912 18.134 14.2914 17.3637 15.3699L16.0471 17.2131C15.5449 17.9162 14.658 18.3308 13.739 18.1006ZM7.01732 12.4827C9.71641 15.1818 12.695 16.2067 14.1238 16.5647C14.3326 16.617 14.5851 16.5359 14.7587 16.2928L16.0752 14.4496C16.332 14.0901 16.2449 13.59 15.8817 13.3386L14.2055 12.1781L13.4962 13.1711C13.2064 13.5769 12.6704 13.8952 12.0462 13.7605C11.2672 13.5924 9.82718 13.0534 8.1369 11.3631C6.44662 9.67281 5.90757 8.23277 5.73949 7.45377C5.60482 6.82962 5.92311 6.29359 6.32889 6.00374L7.32185 5.29449L6.16143 3.61832C5.90996 3.2551 5.40987 3.16796 5.05038 3.42474L3.20718 4.74131C2.96411 4.91493 2.88295 5.1674 2.93527 5.37622C3.29325 6.80498 4.31823 9.78358 7.01732 12.4827Z" fill="#0F0F0F"/>
</svg>
