<svg width="19" height="20" viewBox="0 0 19 20" fill="none" xmlns="http://www.w3.org/2000/svg">
<path d="M5.14583 6.83334C5.80167 6.83334 6.33333 6.30168 6.33333 5.64584C6.33333 4.99 5.80167 4.45834 5.14583 4.45834C4.49 4.45834 3.95833 4.99 3.95833 5.64584C3.95833 6.30168 4.49 6.83334 5.14583 6.83334Z" fill="#0F0F0F"/>
<path d="M3.95833 8.41667C3.95833 7.97945 4.31278 7.625 4.75 7.625H5.54167C5.97889 7.625 6.33333 7.97945 6.33333 8.41667V14.75C6.33333 15.1872 5.97889 15.5417 5.54167 15.5417H4.75C4.31278 15.5417 3.95833 15.1872 3.95833 14.75V8.41667Z" fill="#0F0F0F"/>
<path d="M8.70833 15.5416H9.5C9.93723 15.5416 10.2917 15.1872 10.2917 14.75V11.1875C10.2917 10 12.6667 9.20834 12.6667 10.7916V14.7503C12.6667 15.1875 13.0211 15.5416 13.4583 15.5416H14.25C14.6872 15.5416 15.0417 15.1872 15.0417 14.75V10C15.0417 8.41667 13.8542 7.625 12.2708 7.625C10.6875 7.625 10.2917 8.8125 10.2917 8.8125V8.41667C10.2917 7.97945 9.93723 7.625 9.5 7.625H8.70833C8.27111 7.625 7.91667 7.97945 7.91667 8.41667V14.75C7.91667 15.1872 8.27111 15.5416 8.70833 15.5416Z" fill="#0F0F0F"/>
<path fill-rule="evenodd" clip-rule="evenodd" d="M15.8333 1.29167C17.145 1.29167 18.2083 2.355 18.2083 3.66667V16.3333C18.2083 17.645 17.145 18.7083 15.8333 18.7083H3.16667C1.85499 18.7083 0.791668 17.645 0.791668 16.3333V3.66667C0.791668 2.355 1.85499 1.29167 3.16667 1.29167H15.8333ZM15.8333 2.87501C16.2706 2.87501 16.625 3.22945 16.625 3.66667V16.3333C16.625 16.7706 16.2706 17.125 15.8333 17.125H3.16667C2.72944 17.125 2.375 16.7706 2.375 16.3333V3.66667C2.375 3.22945 2.72944 2.87501 3.16667 2.87501H15.8333Z" fill="#0F0F0F"/>
</svg>
