<svg width="19" height="20" viewBox="0 0 19 20" fill="none" xmlns="http://www.w3.org/2000/svg">
<path fill-rule="evenodd" clip-rule="evenodd" d="M15.8333 3.66667C17.145 3.66667 18.2083 4.73 18.2083 6.04167V13.9583C18.2083 15.27 17.145 16.3333 15.8333 16.3333H3.16667C1.85499 16.3333 0.791668 15.27 0.791668 13.9583V6.04167C0.791668 4.73 1.85499 3.66667 3.16667 3.66667H15.8333ZM15.2418 5.25001H3.75818L9.00946 9.39575C9.29708 9.62282 9.70294 9.62282 9.99056 9.39575L15.2418 5.25001ZM2.375 6.17531V13.9583C2.375 14.3956 2.72944 14.75 3.16667 14.75H15.8333C16.2706 14.75 16.625 14.3956 16.625 13.9583V6.17532L10.9717 10.6385C10.1088 11.3197 8.89122 11.3197 8.02836 10.6385L2.375 6.17531Z" fill="#0F0F0F"/>
</svg>
